<svg xmlns="http://www.w3.org/2000/svg" xmlns:xlink="http://www.w3.org/1999/xlink" width="500" zoomAndPan="magnify" viewBox="0 0 375 374.999991" height="500" preserveAspectRatio="xMidYMid meet" version="1.0"><defs><clipPath id="63241305d9"><path d="M 0 94 L 375 94 L 375 280.734375 L 0 280.734375 Z M 0 94 " clip-rule="nonzero"/></clipPath></defs><g clip-path="url(#63241305d9)"><path fill="#064f52" d="M 262.859375 188.683594 C 262.859375 170.4375 256.222656 153.328125 244.078125 139.957031 C 245.074219 138.035156 245.640625 135.859375 245.640625 133.550781 C 245.640625 125.867188 239.382812 119.617188 231.683594 119.617188 C 223.992188 119.617188 217.726562 125.867188 217.726562 133.550781 C 217.726562 141.238281 223.992188 147.488281 231.683594 147.488281 C 233.46875 147.488281 235.179688 147.148438 236.75 146.535156 C 247.261719 158.097656 253.003906 172.898438 253.003906 188.683594 C 253.003906 192.390625 252.679688 196.027344 252.058594 199.5625 L 203.136719 199.5625 C 201.140625 194.296875 196.042969 190.542969 190.078125 190.542969 C 182.382812 190.542969 176.121094 196.796875 176.121094 204.476562 C 176.121094 212.164062 182.382812 218.414062 190.078125 218.414062 C 196.042969 218.414062 201.140625 214.660156 203.136719 209.398438 L 249.488281 209.398438 C 241.054688 233.4375 218.382812 250.851562 191.617188 251.496094 C 189.617188 246.242188 184.523438 242.5 178.570312 242.5 C 170.871094 242.5 164.609375 248.75 164.609375 256.4375 C 164.609375 264.117188 170.871094 270.371094 178.570312 270.371094 C 184.539062 270.371094 189.644531 266.609375 191.632812 261.335938 C 231.050781 260.503906 262.859375 228.234375 262.859375 188.683594 Z M 157.449219 241.199219 C 157.449219 233.511719 151.1875 227.261719 143.492188 227.261719 C 141.707031 227.261719 140 227.601562 138.429688 228.214844 C 127.914062 216.652344 122.171875 201.847656 122.171875 186.066406 C 122.171875 182.359375 122.496094 178.722656 123.117188 175.1875 L 172.042969 175.1875 C 174.035156 180.457031 179.136719 184.207031 185.097656 184.207031 C 192.796875 184.207031 199.054688 177.953125 199.054688 170.273438 C 199.054688 162.585938 192.796875 156.335938 185.097656 156.335938 C 179.136719 156.335938 174.035156 160.085938 172.042969 165.351562 L 125.691406 165.351562 C 134.121094 141.316406 156.792969 123.898438 183.558594 123.253906 C 185.558594 128.507812 190.652344 132.253906 196.609375 132.253906 C 204.304688 132.253906 210.566406 126 210.566406 118.3125 C 210.566406 110.632812 204.304688 104.378906 196.609375 104.378906 C 190.636719 104.378906 185.535156 108.140625 183.542969 113.417969 C 144.128906 114.246094 112.316406 146.515625 112.316406 186.066406 C 112.316406 204.3125 118.953125 221.421875 131.101562 234.796875 C 130.101562 236.714844 129.535156 238.890625 129.535156 241.199219 C 129.535156 248.882812 135.792969 255.132812 143.492188 255.132812 C 151.1875 255.132812 157.449219 248.882812 157.449219 241.199219 Z M 375.023438 176.109375 C 375.023438 184.117188 368.519531 190.613281 360.5 190.613281 C 355.425781 190.613281 350.960938 188.011719 348.367188 184.074219 L 281.003906 184.074219 C 281.039062 185.171875 281.0625 186.273438 281.0625 187.375 C 281.0625 191.953125 280.730469 196.449219 280.09375 200.84375 L 313.609375 200.84375 C 316.183594 196.78125 320.722656 194.078125 325.898438 194.078125 C 333.917969 194.078125 340.414062 200.570312 340.414062 208.578125 C 340.414062 216.585938 333.917969 223.074219 325.898438 223.074219 C 320.679688 223.074219 316.105469 220.328125 313.546875 216.203125 L 276.519531 216.203125 C 264.355469 253.640625 229.140625 280.707031 187.589844 280.707031 C 146.039062 280.707031 110.820312 253.640625 98.65625 216.203125 L 64.328125 216.203125 C 61.769531 220.328125 57.195312 223.074219 51.976562 223.074219 C 43.957031 223.074219 37.453125 216.585938 37.453125 208.578125 C 37.453125 200.570312 43.957031 194.078125 51.976562 194.078125 C 57.148438 194.078125 61.6875 196.78125 64.261719 200.84375 L 95.082031 200.84375 C 94.445312 196.449219 94.113281 191.953125 94.113281 187.375 C 94.113281 186.273438 94.132812 185.171875 94.171875 184.074219 L 26.667969 184.074219 C 24.070312 188.011719 19.605469 190.613281 14.53125 190.613281 C 6.511719 190.613281 0.0117188 184.117188 0.0117188 176.109375 C 0.0117188 168.105469 6.511719 161.613281 14.53125 161.613281 C 19.847656 161.613281 24.496094 164.46875 27.023438 168.722656 L 95.980469 168.722656 C 104.636719 126.113281 142.363281 94.042969 187.589844 94.042969 C 232.816406 94.042969 270.539062 126.113281 279.195312 168.722656 L 348.007812 168.722656 C 350.539062 164.46875 355.183594 161.613281 360.5 161.613281 C 368.519531 161.613281 375.023438 168.105469 375.023438 176.109375 Z M 178.570312 252.335938 C 176.304688 252.335938 174.464844 254.175781 174.464844 256.4375 C 174.464844 258.695312 176.304688 260.535156 178.570312 260.535156 C 180.832031 260.535156 182.671875 258.695312 182.671875 256.4375 C 182.671875 254.175781 180.832031 252.335938 178.570312 252.335938 Z M 190.078125 200.382812 C 187.816406 200.382812 185.976562 202.222656 185.976562 204.476562 C 185.976562 206.738281 187.816406 208.578125 190.078125 208.578125 C 192.34375 208.578125 194.183594 206.738281 194.183594 204.476562 C 194.183594 202.222656 192.34375 200.382812 190.078125 200.382812 Z M 196.609375 122.414062 C 198.871094 122.414062 200.710938 120.574219 200.710938 118.3125 C 200.710938 116.058594 198.871094 114.21875 196.609375 114.21875 C 194.34375 114.21875 192.503906 116.058594 192.503906 118.3125 C 192.503906 120.574219 194.34375 122.414062 196.609375 122.414062 Z M 185.097656 174.371094 C 187.359375 174.371094 189.203125 172.53125 189.203125 170.273438 C 189.203125 168.011719 187.359375 166.171875 185.097656 166.171875 C 182.835938 166.171875 180.992188 168.011719 180.992188 170.273438 C 180.992188 172.53125 182.835938 174.371094 185.097656 174.371094 Z M 231.683594 129.453125 C 229.425781 129.453125 227.582031 131.292969 227.582031 133.550781 C 227.582031 135.808594 229.425781 137.648438 231.683594 137.648438 C 233.949219 137.648438 235.789062 135.808594 235.789062 133.550781 C 235.789062 131.292969 233.949219 129.453125 231.683594 129.453125 Z M 147.59375 241.199219 C 147.59375 243.460938 145.753906 245.296875 143.492188 245.296875 C 141.226562 245.296875 139.386719 243.460938 139.386719 241.199219 C 139.386719 238.941406 141.226562 237.101562 143.492188 237.101562 C 145.753906 237.101562 147.59375 238.941406 147.59375 241.199219 " fill-opacity="1" fill-rule="nonzero"/></g><path fill="#ffffff" d="M 14.371094 179.914062 C 16.632812 179.914062 18.476562 178.078125 18.476562 175.820312 C 18.476562 173.558594 16.632812 171.722656 14.371094 171.722656 C 12.109375 171.722656 10.265625 173.558594 10.265625 175.820312 C 10.265625 178.078125 12.109375 179.914062 14.371094 179.914062 " fill-opacity="1" fill-rule="nonzero"/><path fill="#ffffff" d="M 52.316406 212.675781 C 54.578125 212.675781 56.421875 210.835938 56.421875 208.578125 C 56.421875 206.316406 54.578125 204.476562 52.316406 204.476562 C 50.054688 204.476562 48.214844 206.316406 48.214844 208.578125 C 48.214844 210.835938 50.054688 212.675781 52.316406 212.675781 " fill-opacity="1" fill-rule="nonzero"/><path fill="#ffffff" d="M 361.089844 180.519531 C 363.355469 180.519531 365.195312 178.679688 365.195312 176.421875 C 365.195312 174.160156 363.355469 172.324219 361.089844 172.324219 C 358.828125 172.324219 356.988281 174.160156 356.988281 176.421875 C 356.988281 178.679688 358.828125 180.519531 361.089844 180.519531 " fill-opacity="1" fill-rule="nonzero"/><path fill="#ffffff" d="M 326.253906 211.828125 C 328.515625 211.828125 330.355469 209.992188 330.355469 207.730469 C 330.355469 205.472656 328.515625 203.632812 326.253906 203.632812 C 323.988281 203.632812 322.148438 205.472656 322.148438 207.730469 C 322.148438 209.992188 323.988281 211.828125 326.253906 211.828125 " fill-opacity="1" fill-rule="nonzero"/></svg>